<svg version="1.1" xmlns="http://www.w3.org/2000/svg" xmlns:xlink="http://www.w3.org/1999/xlink" style="display: none;">
<symbol viewBox="0 0 128 128" id="tick"><path d="M112.639844,0 L35.84,88.575 L17.9203125,69.82 L0,69.82 L35.84,128 L128,0 L112.639844,0 Z"></path></symbol>
<symbol viewBox="0 0 128 128" id="cross"><path d="M81.5879028,64 L125.605715,19.9821876 C128.751004,16.8368988 128.754391,11.5017055 125.465832,8.21314718 L119.786853,2.53416752 C116.427547,-0.825138422 111.229116,-0.817018406 108.017812,2.39428484 L64,46.4120972 L19.9821876,2.39428484 C16.8368988,-0.751003978 11.5017055,-0.7543908 8.21314718,2.53416752 L2.53416752,8.21314718 C-0.825138422,11.5724531 -0.817018406,16.7708844 2.39428484,19.9821876 L46.4120972,64 L2.39428484,108.017812 C-0.751003978,111.163101 -0.7543908,116.498295 2.53416752,119.786853 L8.21314718,125.465832 C11.5724531,128.825138 16.7708844,128.817018 19.9821876,125.605715 L64,81.5879028 L108.017812,125.605715 C111.163101,128.751004 116.498295,128.754391 119.786853,125.465832 L125.465832,119.786853 C128.825138,116.427547 128.817018,111.229116 125.605715,108.017812 L81.5879028,64 L81.5879028,64 Z"></path></symbol>
</svg>
